<svg id="katman_1" data-name="katman 1" xmlns="http://www.w3.org/2000/svg" viewBox="0 0 800 872.58"><title>Logo_black</title><polygon points="445.45 705.7 346.91 573.1 346.91 705.7 326.63 705.7 326.63 533.39 342.12 533.39 440.67 667.06 440.67 533.39 460.71 533.39 460.71 705.7 445.45 705.7"/><polygon points="692.31 705.7 692.31 533.39 798.46 533.39 798.46 554.81 714.5 554.81 714.5 609.47 794.37 609.47 794.37 629.61 714.5 629.61 714.5 684.01 799.22 684.01 799.22 705.7 692.31 705.7"/><path d="M73.8,812.35c10.55-4.31,15.5-12.78,15.5-22.2,0-22.21-16.77-31.95-38-31.95H0V870H51.28c22,0,41.53-7.51,41.53-31.95C92.81,829.61,87.22,816.35,73.8,812.35Zm-56.07-38H51.28c13.42,0,20.29,8.31,20.29,16.14,0,8.78-6.71,14.06-20.13,14.06H17.73Zm33.55,79.08H17.73V820.5H51.44c10.22,0,23.48,5.43,23.48,17.41C74.92,850.21,61.18,853.41,51.28,853.41Z"/><path d="M190.1,823.69c0,21.25-13.1,32.91-31,31.95-16.62-.64-28.44-11.66-28.44-31.95V758.36H112.94v65.33c0,31.79,21.25,47.77,46.17,48.41,27,.95,48.72-15.5,48.72-48.41V758.36H190.1Z"/><rect x="234.51" y="758.2" width="17.73" height="111.82"/><polygon points="298.24 758.2 280.35 758.2 280.35 870.02 357.19 870.02 357.19 853.41 298.24 853.41 298.24 758.2"/><path d="M416.45,758.2H374.12V870h42.33c39.14,0,56.71-28.59,56.07-56.87C472,785.51,454.63,758.2,416.45,758.2Zm0,94.57h-24.6V775.29h24.6c26.36,0,37.86,18.85,38.34,37.7C455.27,832.64,443.77,852.77,416.45,852.77Z"/><path d="M511.82,822.42h61.66V805.8H511.82V775.61H576V758.2H493.93V870h82.59V852.45h-64.7Z"/><path d="M660.7,829.61c22-3.2,30.35-18.86,30.35-34.83,0-18.85-13.57-36.58-39.45-36.58-17.42,0-34.67-.16-52.08-.16V870h17.89V831.36h23.64l34,38.66H696l-1.92-3.19Zm-43.29-14.54V774.49H651.6c14.69,0,21.24,10.55,21.24,20.61,0,10.54-6.55,20-21.4,20Z"/><path d="M755.11,803.41c-14.69-2.08-27.15-5.12-27.15-16,0-10.7,10.86-16.93,25.87-16.93,11.67.16,22.37,4.79,27.64,12.46l13.58-9.1c-9.43-15-25.56-18.86-41.7-18.86-20.12,0-43.29,9-43.13,32.11,0,24,21.09,29.56,43.29,32.59,15.66,2.08,28.6,6.23,28.6,18.37,0,14.06-14.86,18.53-28.28,18.53-12.94,0-26.83-4.79-34.82-18.37l-13.42,8.95c10.22,18.85,26.68,25.4,48.08,25.4,23.33,0,46.17-9.43,46.33-34.51C800,813,778.11,806.6,755.11,803.41Z"/><path d="M.12,706.19v-515L357.35,0,714.56,191.17V489.81H692.28V204.51L357.35,25.27,22.41,204.51V683.9H260.77V537.82a217.54,217.54,0,0,0-2.24-31.57l-.43-2.9-2.93.18c-4.22.25-8.47.38-12.63.38-71.44,0-114.28-37.63-137.64-69.19-31.06-42-39.63-87.43-40-89.34l-2.43-13.29,13.51.14c2.55,0,62.92,1,108.14,29.47,46.41,29.24,76.86,67.75,90.51,114.45l.8,2.74,2.81-.48,2.25-.4c63.87-11.66,106.63-50.47,127.06-115.38,10.06-32,11.94-63,12.16-78.66l.06-4.36-4.17,1.25c-21.12,6.3-60.13,20.81-84.07,47.08-29.46,32.34-39,66.09-39.07,66.43l-7.14,26.28L272,396.92c-2.3-4.1-56.06-101-33.75-174.5,13.71-45.14,64-68.33,66.09-69.3l11.19-5.07,4,11.63c.76,2.24,18.38,55.32-4.31,103.13-13.18,27.79-36.85,45.68-49.53,50.93L263,314.83l.77,2.74a346.33,346.33,0,0,0,14.15,40l2.64,6.27,3.15-6a212.4,212.4,0,0,1,31.34-44.89c39.65-43.52,110.22-57.78,113.2-58.36l12.19-2.4,1.06,12.37c.18,2.06,4.19,51.12-12.7,104.77C406,441.7,356.14,486.86,284.51,499.93l-4.32.77.45,3.07a235.91,235.91,0,0,1,2.41,34.05V706.19Zm91.81-346c5.16,16,14.78,39.68,31.34,61.86,29.52,39.53,69.57,59.58,119.05,59.58,2.16,0,4.37,0,6.57-.12l4.24-.14-1.31-4c-12.73-39.42-38.76-71.09-79.56-96.8-24.68-15.55-55.44-21.91-76.9-24.5l-5-.6ZM297.54,182.8c-13.79,9.42-31.57,25.07-38,46.1-5,16.63-5.81,36.63-2.26,59.44l.74,4.73,4.09-2.49c9.86-6,24.4-19.4,32.91-37.32,11.33-23.89,10.3-50.33,7.45-68.32l-.8-5Z"/><path d="M609.62,575.62c-6.72-12.28-20.34-25.39-39.27-23.75-9.74,1.09-19.64,1.67-29.17,3.4-11.32,2-17,14.2-17.18,23a99.24,99.24,0,0,1-10.25,41.47c-5.08,10.26-6.7,20.36,2.07,30.82,9.11,10.87,12.84,20.41,21.85,31.33,3.38,4.11,7.78,6.54,14.33,6.81,20.66.84,56-12.67,64.15-27.45,6.91-12.45,18.2-23.78,23.46-29.31,10.3-10.83,9.28-16.36,2.22-23.75C629.14,594.92,617.3,589.67,609.62,575.62Zm13,54.24c-8.76,5.32-10.47,9.73-14,17.26C599,667.56,581.13,666.37,560,671.85a18.16,18.16,0,0,1-9.32-.24c-15.18-5.06-34.4-38.8-24.37-49.34,7.42-7.78,9.87-14.9,10-25.56.24-27.58,13-27.64,33.69-27.59,12.14-.33,32.92,3,34.54,19.47,1.09,11.11,6.55,13.48,16.66,19.85C630.52,614.31,636.42,621.46,622.57,629.86Z"/><path d="M565,608.54c-7.78,35.16,4,38.05,21,13.77,2.27-3.79-3.13-6.82-4.08-11.24C580.34,597.32,567.94,595.34,565,608.54Z"/><path d="M598.63,597.73c-6-22.15-6-21.68-35.64-20.54-13.11.51-18.2,4.52-14.11,13.48C555.4,605,550.07,616.75,537,628.2c-6.11,5.33,1.93,34.59,18.12,34.6,14.34,0,30.65-2.68,39.32-13.55s15.57-13.9,22.75-26.31C622.93,613,601.66,609,598.63,597.73Zm-.42,23.77c-4.06,7-7.92,8.68-12.87,14.88S571.22,644,563.1,644c-9.15,0-14.25-11.09-11.68-15.11,5.33-8.35,9.68-15.6,10.18-24.49.27-4.75-.53-11.85,6.64-13.25,8.91-1.72,16.12,3.52,19.5,16C589.46,613.62,601.48,615.86,598.21,621.5Z"/><path d="M667.1,620.31c0-48.26-29.87-93.19-90.89-93.44-53.87,0-91.91,39.31-91.91,93.69,0,47,29.36,92.17,91.4,92.17S667.1,668.56,667.1,620.31ZM549,697.62c-7.34-.23-12.29-3-16.14-7.65-10.21-12.43-18.17-22.35-28.51-34.72-9.94-11.91-7.67-24.52-2.09-36.35,5-17.22,9.21-30.19,15.07-46.1,3.49-9.47,8.88-24.09,21.55-26.57,10.66-2.09,18.25-4.52,29.15-5.89,21.19-2.09,48.77,11.13,56.43,25.14,8.77,16,9.93,23.61,24.3,38.69,8,8.39,7.77,14.08-.87,28.69-4.57,7.73-11.44,23.5-19,37.87C619.81,687.79,572.14,698.36,549,697.62Z"/></svg>